<?xml version="1.0" encoding="UTF-8"?>
<svg width="63.409mm" height="101.03mm" version="1.1" viewBox="0 0 63.408806 101.03455" xmlns="http://www.w3.org/2000/svg" xmlns:xlink="http://www.w3.org/1999/xlink">
 <defs>
  <linearGradient id="x">
   <stop stop-color="#dbd3d3" offset="0"/>
   <stop stop-color="#dbd3d3" stop-opacity="0" offset="1"/>
  </linearGradient>
  <linearGradient id="w">
   <stop stop-color="#e3dbdb" offset="0"/>
   <stop stop-color="#e3dbdb" stop-opacity="0" offset="1"/>
  </linearGradient>
  <linearGradient id="ai" x1="155.46" x2="150.96" y1="230.84" y2="229.03" gradientUnits="userSpaceOnUse" xlink:href="#w"/>
  <linearGradient id="aj" x1="154.47" x2="150.7" y1="231.33" y2="228.85" gradientTransform="rotate(-10.219 67.809 190.09)" gradientUnits="userSpaceOnUse" xlink:href="#w"/>
  <linearGradient id="ak" x1="142.3" x2="137.43" y1="239.46" y2="236.64" gradientTransform="translate(-.070871 -.094494)" gradientUnits="userSpaceOnUse">
   <stop stop-color="#fcf3f3" offset="0"/>
   <stop stop-color="#eb6565" stop-opacity="0" offset="1"/>
  </linearGradient>
  <linearGradient id="al" x1="144.4" x2="142.52" y1="184.31" y2="187.28" gradientUnits="userSpaceOnUse" xlink:href="#x"/>
  <linearGradient id="am" x1="144.38" x2="143.15" y1="184.59" y2="187.09" gradientTransform="translate(-14.866 -75.199)" gradientUnits="userSpaceOnUse" xlink:href="#x"/>
  <linearGradient id="an" x1="82.314" x2="86.839" y1="113.64" y2="116.34" gradientUnits="userSpaceOnUse">
   <stop stop-color="#f0f0f0" offset="0"/>
   <stop stop-color="#f0f0f0" stop-opacity="0" offset="1"/>
  </linearGradient>
  <filter id="y" x="-.034835" y="-.077162" width="1.0697" height="1.1543" color-interpolation-filters="sRGB">
   <feGaussianBlur stdDeviation="0.085381423"/>
  </filter>
  <linearGradient id="ao" x1="79.051" x2="83.376" y1="133.14" y2="134.19" gradientUnits="userSpaceOnUse">
   <stop stop-color="#fff5f5" offset="0"/>
   <stop stop-color="#fff5f5" stop-opacity="0" offset="1"/>
  </linearGradient>
  <filter id="z" x="-.049458" y="-.046626" width="1.0989" height="1.0933" color-interpolation-filters="sRGB">
   <feGaussianBlur stdDeviation="0.077718291"/>
  </filter>
  <linearGradient id="ap" x1="83.949" x2="86.721" y1="143.51" y2="144.48" gradientUnits="userSpaceOnUse">
   <stop stop-color="#ffe6e6" offset="0"/>
   <stop stop-color="#ffe6e6" stop-opacity="0" offset="1"/>
  </linearGradient>
  <filter id="aa" x="-.074079" y="-.035502" width="1.1482" height="1.071" color-interpolation-filters="sRGB">
   <feGaussianBlur stdDeviation="0.044012478"/>
  </filter>
  <linearGradient id="aq" x1="84.872" x2="88.022" y1="149.64" y2="152.62" gradientUnits="userSpaceOnUse">
   <stop stop-color="#fff" offset="0"/>
   <stop stop-color="#fff" stop-opacity="0" offset="1"/>
  </linearGradient>
  <filter id="ab" x="-.043814" y="-.053071" width="1.0876" height="1.1061" color-interpolation-filters="sRGB">
   <feGaussianBlur stdDeviation="0.04773693"/>
  </filter>
  <filter id="ac" x="-.19201" y="-.028215" width="1.384" height="1.0564" color-interpolation-filters="sRGB">
   <feGaussianBlur stdDeviation="0.085515081"/>
  </filter>
  <filter id="ad" x="-.034749" y="-.077589" width="1.0695" height="1.1552" color-interpolation-filters="sRGB">
   <feGaussianBlur stdDeviation="0.0924496"/>
  </filter>
  <filter id="ae" x="-.084958" y="-.033449" width="1.1699" height="1.0669" color-interpolation-filters="sRGB">
   <feGaussianBlur stdDeviation="0.075262148"/>
  </filter>
  <filter id="af" x="-.13117" y="-.038896" width="1.2623" height="1.0778" color-interpolation-filters="sRGB">
   <feGaussianBlur stdDeviation="0.088552592"/>
  </filter>
  <filter id="ag" x="-.11193" y="-.040986" width="1.2239" height="1.082" color-interpolation-filters="sRGB">
   <feGaussianBlur stdDeviation="0.10128353"/>
  </filter>
  <filter id="ah" x="-.096977" y="-.031893" width="1.194" height="1.0638" color-interpolation-filters="sRGB">
   <feGaussianBlur stdDeviation="0.082704502"/>
  </filter>
  <linearGradient id="ar" x1="124.31" x2="120.39" y1="239.26" y2="237" gradientTransform="translate(-.023624 -.047247)" gradientUnits="userSpaceOnUse">
   <stop stop-color="#fff" offset="0"/>
   <stop stop-color="#fff" stop-opacity="0" offset="1"/>
  </linearGradient>
 </defs>
 <g transform="translate(-.2956 -195.48)">
  <g transform="translate(-7.1152e-8 .51727)">
   <rect x=".2956" y="194.97" width="63.409" height="101.03" fill="#ffd5e5" fill-rule="evenodd" style="paint-order:markers fill stroke"/>
   <g transform="matrix(.44271 0 0 .44271 -16.291 167.12)">
    <path d="m37.465 244.04c0-44.524 0.0334-47.082 0.61736-47.26 1.8028-0.55016 12.957-3.0227 15.081-3.343 4.4098-0.66497 8.7144-1.1069 14.111-1.4486 2.9104-0.1843 7.414-0.65802 10.008-1.0527s5.2609-0.71759 5.9265-0.71759c2.5413 0 5.2977 2.0408 7.0394 5.2118 1.729 3.1478 4.6945 7.3317 9.3084 13.133 4.3201 5.4315 5.5042 7.2844 10.145 15.875 3.6763 6.8049 6.7764 11.659 8.1216 12.717 1.0538 0.82892 2.9892 0.89799 3.7533 0.13393 1.1232-1.1232 0.68433-3.1092-1.9151-8.6671-1.3582-2.904-2.4694-5.3555-2.4694-5.4479s-0.88237-1.9825-1.9608-4.2004c-2.3292-4.79-2.7641-6.1144-2.2221-6.7675 0.48939-0.58969 1.7062-0.58563 2.4876 8e-3 1.0102 0.76774 3.3605 4.9014 7.46 9.6497 4.3777 7.7287 11.09 15.953 12.456 16.605 1.5099 0.54474 3.4865 0.42823 4.4893-1.0517 0.72385-1.1648-0.38071-3.7401-3.5132-8.1913-1.6484-2.3424-3.945-6.1638-5.1035-8.4922-1.3255-2.664-3.0801-5.4674-4.733-7.5624-3.1261-3.962-3.706-5.1225-2.9416-5.8869 0.91773-0.91773 2.425-0.15671 5.6188 2.8369 1.673 1.5682 4.918 4.4861 5.7673 5.2715s1.5142 1.857 2.9211 3.5939c8.3345 10.289 10.523 12.507 12.344 12.507 1.2377 0 2.9127-1.2984 2.9127-2.2578 0-1.3907-3.619-8.0452-5.8708-10.795-1.1917-1.4552-3.4935-4.4931-5.1153-6.7508-2.181-3.0362-3.6834-4.7022-5.7708-6.399-1.5522-1.2617-3.4445-2.9413-4.2051-3.7324-1.1654-1.2123-1.289-1.4745-0.78556-1.6676 0.34192-0.1312 1.3103 0.1372 2.2648 0.62777 4.2851 2.2022 7.4104 4.0204 8.4586 4.9211 0.63066 0.54186 2.3223 1.7785 3.7592 2.7481 1.4369 0.96962 3.2094 2.4912 3.9387 3.3814 2.4841 3.0315 6.4229 4.9018 8.3183 3.3669 1.625-0.55115 0.11214-2.1635-0.41079-3.4864-0.95057-2.607-3.3318-5.4929-9.3828-11.371-3.7038-3.598-4.7444-4.3818-8.8969-6.7007-2.5864-1.4443-5.1969-3.0388-5.8012-3.5432l-1.0986-0.91716 3.3317 0.67521c4.9357 1.0003 7.8889 0.26477 8.74-2.1768 0.35831-1.0278 0.31212-1.1495-0.66108-1.7413-0.57547-0.34995-1.9529-0.83918-3.061-1.0872-1.1081-0.24798-3.052-1.0892-4.3199-1.8693-2.9689-1.8268-3.6622-2.2014-6.0094-3.2477-1.0672-0.47567-3.6001-1.8978-5.6289-3.1603-2.0287-1.2625-4.0925-2.3802-4.5861-2.4838s-4.2313-0.66471-8.3059-1.2468c-7.2156-1.0309-7.5047-1.1042-11.112-2.8183-4.2607-2.0243-6.488-2.4557-12.733-2.4664-6.104-0.0104-12.667-0.42391-12.667-0.79804 0-0.18142 1.1107-1.5461 2.4682-3.0326 2.3731-2.5986 2.4679-2.7707 2.4586-4.4666-7e-3 -1.263-0.41721-2.7156-1.4449-5.1153-0.78938-1.8433-1.7317-4.3606-2.094-5.594-0.79704-2.7135-0.64407-3.3447-1.8401-2.9582-1.1371 0.3675-1.9429-0.64182-2.4788-1.1777-1.0377-1.0377-2.7567-5.884-3.6186-10.202-0.30986-1.5522-0.95463-4.0838-1.4328-5.6257-1.2046-3.8842-2.0109-8.0759-0.61413-9.9206 1.3171-0.73851 1.1217-1.0953 0.58654-3.6801-0.45891-2.2166-0.48307-3.2468-0.14894-6.35 0.21935-2.0373 0.3986-5.1644 0.39832-6.9492-3.9e-4 -2.4409-0.39026-3.0584 0.25208-5.1286 0.46967-1.5137 1.4989-2.7957 1.7972-3.9922 0.29827-1.1965 1.2257-4.7644 1.8159-5.7236 0.59024-0.95927 0.67226-2.1009 0.67226-2.2919 0-0.19101 0.54087-1.1174 0.95694-1.487s1.3219-0.82157 1.768-1.821c0.73457-1.6457 0.97838-1.8727 2.5841-2.406 0.97516-0.32389 3.1971-1.6282 4.2621-2.5793 0.49309-2.7937 1.9476-2.7366 2.5282-3.7675 0.42935-0.76235 1.4055-1.4666 2.8144-2.0953 1.1301-0.50421 2.1767-0.91709 2.3258-0.91751 0.14908-4.2e-4 1.1442-0.45074 2.2113-1.0007s3.369-1.3479 5.1153-1.7732c1.7462-0.42527 3.6801-0.93381 4.2975-1.1301 0.69554-0.22112 4.7635 0.08744 10.079 0.19548 9.3425 0.18987 10.338 0.04029 13.235 1.8851 0.918 0.58474 2.7026 1.5499 3.9622 2.1526 2.7588 1.3201 4.7932 2.0856 7.5828 7.022 2.6821 1.4965 3.9772 4.1624 4.352 5.72 0.25445 1.0574 1.1009 4.3945 2.2275 6.7228 3.682 7.6097 4.7305 11.574 4.2032 22.649-0.27175 5.7069-0.24099 6.5155 0.27766 7.2998 0.92225 1.3945 1.3059 4.0174-0.57707 10.054-0.50326 1.7462-0.89799 4.1275-1.1082 5.2917-0.21017 1.1642-0.88354 3.6246-1.4964 5.4676-1.003 3.0163-1.3201 3.5536-3.175 5.3799-1.1334 1.1159-2.2168 2.0289-2.4076 2.0289s-1.0723-1.4443-1.9589-3.2096c-1.4164-2.8202-1.6713-3.6881-2.1012-7.1536-0.2691-2.1692-0.602-4.2571-0.7398-4.6397-0.13779-0.38265-1.272-2.3372-2.5204-4.3436-2.1583-3.4685-5.4175-9.9492-6.1492-12.227-0.18696-0.58209-0.32357-2.106-0.30359-3.3866 0.049-3.1362 0.0456-4.7651-1.2689-4.7651-1.4995 0-3.1642 1.7407-3.987 3.9396-1.2258 3.2763-0.89537 7.0402 1.0759 12.254 1.1623 3.0744 1.0789 3.7779-0.33714 2.8418-0.51561-0.34088-2.525-1.4789-4.4652-2.529s-5.1153-2.9146-7.0556-4.1434c-4.3331-2.7443-5.0752-3.0586-9.907-4.1969-8.8228-2.0785-10.921-2.6017-13.428-1.6113-0.94823 0.37463-1.6164 1.0196-1.4298 2.4112 0.27057 2.0173 2.0063 2.622 5.5897 3.5833 1.621 0.43483 2.9737 0.46383 4.6229 1.1039 1.6492 1.108 4.9565 2.3028 5.7326 2.3977 1.5685 0.42633 2.4709 0.57551 5.3638 3.1862 2.408 1.8378 3.6468 3.1133 3.6468 3.785 0 0.78961-1.8401 0.21021-5.1879-1.0611-4.1106-1.561-6.5069-2.1039-8.1339-1.8428-0.73322 0.11768-1.9339 0.35911-3.7075 0.53652-3.5218 0.35226-7.0649 1.2322-9.0485 3.0851-1.2612 1.1781-1.6966 2.0817-0.92389 3.576 0.8219 1.5894 2.2279 1.3921 5.1828 1.1091 3.8963-0.37307 6.5206-1.1223 10.074 0.13281 1.1363 0.87671 5.5198 2.5051 6.7069 2.5882 1.7127 0.60025 2.4901 1.6321 1.8294 2.4283-0.62026 0.74736-3.833 0.63628-7.0433-0.24352-2.447-0.67062-3.0956-0.71319-6.1187-0.40163-2.8326 0.29193-3.8238 0.26943-4.887 1.0804-4.4534 3.6375 0.69355 6.7686 3.1315 5.7535 2.8413-1.2207 10.55 1.7993 12.081 2.5911 1.4359 0.74252 2.0555 2.2038 1.2673 2.9886-0.44206 0.44013-1.3001 0.78803-4.2888 0.77108-3.9006-0.0221-5.9509-0.6945-7.5404-1.8678-1.3156-0.9711-3.6815-1.7221-4.4091-0.99442-0.32481 0.3248-0.8268 1.4279-0.8268 1.816 0 0.87162 2.5591 4.1891 3.6482 5.2123 1.2678 0.36698 3.7796 1.6426 6.6916 2.4243 1.4575 0.18924 5.0382 0.26391 6.2248 0.45468s3.8734 0.77207 4.3538 0.77207c0.48046 0 1.3599 0.71354 3.3402 1.7011 4.3468 2.1678 9.2918 3.893 15.208 5.3061 5.0294 1.2012 7.3877 2.1961 9.2138 3.8872 0.70199 0.65009 3.1104 2.9025 5.352 5.0054 6.4155 6.0185 10.854 9.0334 18.305 12.433 2.7349 1.2478 8.1727 4.011 12.084 6.1403 3.9113 2.1294 7.6204 4.049 8.2424 4.2658l1.1309 0.39423v90.595h-143.23z" stroke-width=".35278"/>
    <path d="m123.39 114.25c-1.0503-2.7227-0.55166-5.2722 0.63141-7.4674 1.3683 2.1798 0.94873 5.5099 0.71108 7.5457-0.47035 0.20543-0.69902 0.40875-1.3425-0.0783z" fill="#f02c2c" fill-rule="evenodd"/>
    <path d="m88.116 117.79c0.94616-1.4946 1.0245-1.6104 0.94494-3.26-2.3451-0.8069-5.8946-1.7167-6.3547 0.35435-0.44391 1.9982 3.4448 2.9123 5.4098 2.9058z" fill="#ee2e2e" fill-rule="evenodd"/>
    <path d="m86.651 142.36c-1.5731 1.3074-1.9985 2.3737 0.28348 4.1105 0.64581-0.81121 0.44558-4.1643-0.28348-4.1105z" fill="#db2424" fill-rule="evenodd"/>
    <path d="m88.16 154.57c0.83059-0.35999 1.0052-1.1135 1.184-1.8646-0.61137-1.2118-1.4488-2.5827-2.3151-2.0316-1.1411 0.72582 0.26179 2.9329 1.1311 3.8962z" fill="#e90808" fill-rule="evenodd"/>
    <path d="m84.241 131.07c0.75645 1.391 0.78276 2.3359 0.14174 3.7325-2.4869 1.1377-3.7136 0.34736-3.9688-0.99219-0.29357-1.5413 1.8773-2.4012 3.827-2.7403z" fill="#f00" fill-rule="evenodd"/>
    <path d="m139.2 185.26c2.2577 1.8491 4.8353 2.1727 7.2904 1.7354-1.6426-1.9814-4.9369-2.6242-6.9449-3.0351-0.3422 0.38253-0.60685 0.53614-0.34545 1.2996z" fill="#f02c2c" fill-rule="evenodd"/>
    <path d="m147.98 225.89c0.49405-0.88242 1.7347-1.3606 2.5934-1.3587 1.3767 3e-3 3.7978 6.1098 2.6038 6.9338-1.3504 0.84463-6.374-3.2299-5.1972-5.5752z" fill="#f20000" fill-rule="evenodd"/>
    <path d="m153.55 212.14c-0.0358-1.3755 0.44748-2.7113 2.1987-3.0348 3.092 2.1291 5.5994 8.3214 1.3449 6.3893-1.3506-0.77932-2.5491-1.8628-3.5435-3.3545z" fill="#f90000" fill-rule="evenodd"/>
    <path d="m134.51 234.02c0.82376-1.792 1.7353-2.2797 2.8112-2.3624 3.5989 2.7707 4.8449 9.5932 0.54334 7.0339-0.9799-1.1132-2.8156-2.9284-3.3545-4.6715z" fill="#f00" fill-rule="evenodd"/>
    <path d="m117.55 234.63c0.38255-2.2245 1.3268-2.3228 2.6458-2.3151 1.3798 1.7984 3.9571 8.684 0.057 6.1905-1.0291-0.73128-1.8805-2.2832-2.7029-3.8754z" fill="#ff0404" fill-rule="evenodd"/>
    <path d="m152.79 227.96c0.55415 1.4631 0.81701 2.9981 0.28209 3.3673-0.29314 0.18336-0.7766 0.11185-1.3283-0.13231 1.9936-0.90058-1.2109-8.8551 1.0462-3.235z" fill="url(#ai)" fill-rule="evenodd" filter="url(#af)"/>
    <path d="m158.33 212.13c0.80493 1.3416 1.1689 2.956 0.70798 3.4142-0.25596 0.23245-0.74444 0.24785-1.3307 0.10543 1.8022-1.24-2.5956-8.6501 0.62268-3.5196z" fill="url(#aj)" fill-rule="evenodd" filter="url(#ae)"/>
    <path d="m139.14 233.75c1.4399 2.4373 2.18 5.4826 0.14224 5.4256-0.23284-7e-3 -0.62045-0.13581-0.91834-0.26617 3.5276 0.28982-0.57904-7.7158 0.7761-5.1595z" fill="url(#ak)" fill-rule="evenodd" filter="url(#ag)"/>
    <path d="m120.88 233.51c1.3094 2.573 2.6119 7.0327-0.64882 4.948 2.9427 0.28412-1.1176-8.1801 0.64882-4.948z" fill="url(#ar)" fill-rule="evenodd" filter="url(#ah)"/>
    <path d="m146.35 186.94c-1.8244-1.775-4.4443-2.3727-6.3853-2.8597 2.0853 1.967 4.399 2.3884 6.3853 2.8597z" fill="url(#al)" fill-rule="evenodd" filter="url(#ad)"/>
    <path transform="matrix(.31953 -.94758 -.94758 -.31953 187.9 267.08)" d="m131.33 111.64c-1.7978-1.8538-4.7286-2.4988-6.7032-2.8861 2.0853 1.967 4.717 2.4148 6.7032 2.8861z" fill="url(#am)" fill-rule="evenodd" filter="url(#ac)"/>
    <path d="m88.191 114.33c-2.2684-0.6971-5.0155-1.2177-5.422 0.61205-0.1304 0.58697 0.19574 0.9977 0.65447 1.4017 0.86198-1.9097 6.8326-1.3071 4.7676-2.0138z" fill="url(#an)" fill-rule="evenodd" filter="url(#y)"/>
    <path d="m82.232 135.34c-0.96524-0.0843-1.6096-0.68512-1.7671-1.5118-0.23466-1.232 1.2222-2.0454 2.7652-2.4887 2.7748 0.12923-1.2424 1.2352-0.99814 4.0004z" fill="url(#ao)" fill-rule="evenodd" filter="url(#z)"/>
    <path d="m89.274 152.68c-0.53713-0.88271-1.5307-2.3699-2.1864-1.9528-0.62712 0.3989-0.48586 1.2452-0.08708 2.0866-0.20837-1.5939 0.92349-0.50798 2.2735-0.13373z" fill="url(#aq)" fill-rule="evenodd" filter="url(#ab)"/>
    <path d="m86.718 142.44c-1.1999 0.99719-1.7321 1.8541-0.90441 2.9753-0.15562-1.6908 1.4745-2.9201 0.90441-2.9753z" fill="url(#ap)" fill-rule="evenodd" filter="url(#aa)"/>
   </g>
  </g>
 </g>
</svg>
